<svg xmlns="http://www.w3.org/2000/svg" width="140.531" height="95.189" viewBox="0 0 140.531 95.189">
  <g id="Group_2" data-name="Group 2" transform="translate(-585 -2849.326)">
    <path id="Path_73" data-name="Path 73" d="M5082,2941.326v95.189l28.388-20.623h112.144v-74.566Z" transform="translate(-4497 -92)"/>
    <path id="Path_94" data-name="Path 94" d="M20.658,24V16.944h4.56c3.24,0,5.256-1.968,5.256-4.872S28.458,7.2,25.218,7.2H19.05V24Zm0-15.312h4.608a3.143,3.143,0,0,1,3.5,3.384,3.143,3.143,0,0,1-3.5,3.384H20.658ZM34.41,24V7.008H32.9V24Zm7.776-12.288c-2.52,0-4.824,1.656-5.064,3.984h1.512c.1-1.416,1.68-2.592,3.552-2.592,2.256,0,3.552,1.272,3.552,3.1,0,.36-.216.576-.744.576H42.066c-3,0-4.92,1.464-4.92,3.768,0,2.232,1.656,3.648,4.248,3.648a4.723,4.723,0,0,0,4.344-2.4V24H47.25V16.2C47.25,13.512,45.354,11.712,42.186,11.712ZM41.514,22.8c-1.68,0-2.76-.888-2.76-2.256,0-1.536,1.3-2.5,3.312-2.5h3.672v.36C45.738,21.192,44.178,22.8,41.514,22.8ZM57.546,11.9l-3.7,10.1-3.7-10.1H48.57l4.56,12.384L51.642,28.9h1.464l2.04-6.048L59.154,11.9ZM71.9,24l4.44-12.1H74.73l-3.7,10.224L67.338,11.9H65.754L70.194,24ZM78.21,9.648h1.824V7.008H78.21ZM79.89,24V11.9H78.378V24Zm8.52.192a4.782,4.782,0,0,0,4.2-2.376V24h1.512V7.008H92.61v7.08a4.782,4.782,0,0,0-4.2-2.376c-3.84,0-5.88,2.784-5.88,6.24S84.57,24.192,88.41,24.192Zm.048-1.392c-2.616,0-4.32-1.92-4.32-4.848s1.7-4.848,4.32-4.848,4.32,1.92,4.32,4.848S91.074,22.8,88.458,22.8Zm18.192-2.616c-.408,1.656-1.752,2.616-3.888,2.616a4.547,4.547,0,0,1-4.392-4.7h9.672a7.8,7.8,0,0,0,.048-.792,5.278,5.278,0,0,0-5.544-5.592c-3.408,0-5.712,2.472-5.712,6.144,0,3.6,2.5,6.336,5.928,6.336,3,0,5.088-1.584,5.472-4.008Zm-4.1-7.08a3.67,3.67,0,0,1,3.96,3.6h-8.04A3.948,3.948,0,0,1,102.546,13.1Zm13.7,11.088a5.937,5.937,0,0,0,6.1-6.24,6.1,6.1,0,1,0-12.192,0A5.937,5.937,0,0,0,116.25,24.192Zm0-1.392c-2.688,0-4.512-2.016-4.512-4.848s1.824-4.848,4.512-4.848,4.512,2.016,4.512,4.848S118.938,22.8,116.25,22.8Z" transform="translate(585 2872.658)" fill="#fff"/>
  </g>
</svg>
